<?xml version="1.0" encoding="utf-8"?>
<!-- Generator: Adobe Illustrator 22.0.1, SVG Export Plug-In . SVG Version: 6.00 Build 0)  -->
<svg version="1.1" id="Layer_1" xmlns="http://www.w3.org/2000/svg" xmlns:xlink="http://www.w3.org/1999/xlink" x="0px" y="0px"
	 viewBox="0 0 315.9 57.1" style="enable-background:new 0 0 315.9 57.1;" xml:space="preserve">
<style type="text/css">
	.st0{fill:#016495;}
	.st1{fill:#4B93B8;}
</style>
<polygon class="st0" points="44.9,11 44.9,0 0,24.2 0,32.5 44.9,57 44.9,46 10.2,28.4 "/>
<polygon class="st0" points="65.2,46 65.2,57 110.1,32.5 110.1,24.2 65.2,0 65.2,11 99.9,28.4 "/>
<circle class="st1" cx="59.4" cy="17.6" r="2.1"/>
<circle class="st1" cx="57.2" cy="8.2" r="3.3"/>
<circle class="st1" cx="50.4" cy="19.4" r="1.8"/>
<path class="st1" d="M92.4,28.9c-8.5,1.3-31,5.2-43,0.9c-13.4-4.9-28.3-2.1-33.4-1.6l39.2,19.9L92.4,28.9z"/>
<g>
	<g>
		<path class="st0" d="M183.2,3h-8.5l-18.3,51h9.8l0.3-0.7c1.2-3,3-7.5,5.5-13.5l3.4-8.7l4.6-12.7l4.4,12.7l3.5,8.7l2.2,5.5h-16
			l-3.4,8.7h23h0.1h9.7L183.2,3z"/>
	</g>
</g>
<g>
	<g>
		<polygon class="st1" points="294.8,28.6 313.9,3.7 302.5,3.7 285.2,26.7 285.2,31 304.1,54 316,54 		"/>
	</g>
</g>
<g>
	<g>
		<path class="st0" d="M237.6,26.8c3.7-3.5,4.6-9.3,2.5-14.5c-2.2-5.4-6.9-8.6-12.7-8.6h-21.1V54h22.8c9.9,0,15.1-7.8,15.1-15.6
			C244.2,33.1,241.8,29.2,237.6,26.8z M229.1,45.1h-13.8V33.5v-1.6v-9.1v-0.6v-9.8h12.1c3.1,0,4.5,2.6,4.5,5.1
			c0,1.4-0.4,3.3-1.1,4.3c-0.9,1-2.1,1.6-3.5,1.6h-7.5v9h9.3c4.1,0,5.9,2.8,5.9,6C235.1,41.6,233.2,45.1,229.1,45.1z"/>
	</g>
</g>
<g>
	<g>
		<path class="st1" d="M273.3,25.3l-0.8,1.1C272.8,26,273,25.7,273.3,25.3z"/>
	</g>
</g>
<g>
	<g>
		<path class="st1" d="M264.9,3.2c-12.9,0-18.8,9.3-18.8,17.8c0,6.4,3.3,12.3,8.7,15.3c1.3,0.8,2.9,1.2,4.6,1.5l5.5-8.2
			c-6.6,0-9.6-4.5-9.6-8.6c0-4.3,3-8.6,9.6-8.6s9.6,4.3,9.6,8.6c0,1.5-0.4,3-1.2,4.3l0-0.1l0,0.1c-0.2,0.4-0.5,0.8-0.8,1.1l-8,11.4
			L253.1,54h11.2l16.2-22.8c2-3.1,3.1-6.8,3.1-10.3C283.7,12.1,277.2,3.2,264.9,3.2z"/>
	</g>
</g>
<polygon class="st0" points="132.2,3.7 123.1,3.7 123.1,54 132.2,54 132.2,44.9 "/>
<rect x="135.5" y="44.9" class="st0" width="19.3" height="9.1"/>
</svg>
